<?xml version="1.0" encoding="UTF-8"?><svg xmlns="http://www.w3.org/2000/svg" xmlns:xlink="http://www.w3.org/1999/xlink" contentScriptType="text/ecmascript" width="375pt" zoomAndPan="magnify" contentStyleType="text/css" viewBox="0 0 375 374.999991" height="374.999991pt" preserveAspectRatio="xMidYMid meet" version="1.2"><defs><g/><clipPath xml:id="clip1" id="clip1"><path d="M 57 150 L 137 150 L 137 241 L 57 241 Z M 57 150 "/></clipPath><clipPath xml:id="clip2" id="clip2"><path d="M 96.75 128.695312 L 173.832031 175.152344 L 133.183594 242.597656 L 56.101562 196.140625 Z M 96.75 128.695312 "/></clipPath><clipPath xml:id="clip3" id="clip3"><path d="M 96.75 128.695312 L 173.832031 175.152344 L 133.183594 242.597656 L 56.101562 196.140625 Z M 96.75 128.695312 "/></clipPath></defs><g xml:id="surface1" id="surface1"><rect x="0" width="375" y="0" height="374.999991" style="fill:rgb(100%,100%,100%);fill-opacity:1;stroke:none;"/><rect x="0" width="375" y="0" height="374.999991" style="fill:rgb(100%,100%,100%);fill-opacity:1;stroke:none;"/><rect x="0" width="375" y="0" height="374.999991" style="fill:rgb(0%,0%,0%);fill-opacity:1;stroke:none;"/><g style="fill:rgb(100%,100%,100%);fill-opacity:1;"><g transform="translate(150.687681, 182.137692)"><path style="stroke:none;" d="M 22.703125 -6.59375 L 7.96875 -6.59375 L 5.171875 0 L 0.046875 0 L 12.9375 -29.21875 L 17.984375 -29.21875 L 30.765625 0 L 25.5 0 Z M 20.828125 -10.96875 L 15.3125 -23.953125 L 9.8125 -10.96875 Z M 20.828125 -10.96875 "/></g></g><g style="fill:rgb(100%,100%,100%);fill-opacity:1;"><g transform="translate(181.484806, 182.137692)"><path style="stroke:none;" d="M 24.703125 -30.96875 L 24.703125 0 L 19.90625 0 L 19.90625 -3.796875 C 18.257812 -1.128906 15.660156 0.203125 12.109375 0.203125 C 8.929688 0.203125 6.359375 -0.84375 4.390625 -2.9375 C 2.429688 -5.039062 1.453125 -7.789062 1.453125 -11.1875 C 1.453125 -14.519531 2.425781 -17.222656 4.375 -19.296875 C 6.320312 -21.367188 8.867188 -22.40625 12.015625 -22.40625 C 15.578125 -22.40625 18.207031 -21.054688 19.90625 -18.359375 L 19.90625 -30.96875 Z M 8.1875 -5.8125 C 9.457031 -4.46875 11.09375 -3.796875 13.09375 -3.796875 C 15.101562 -3.796875 16.738281 -4.46875 18 -5.8125 C 19.269531 -7.164062 19.90625 -8.898438 19.90625 -11.015625 C 19.90625 -13.160156 19.269531 -14.914062 18 -16.28125 C 16.738281 -17.644531 15.101562 -18.328125 13.09375 -18.328125 C 11.09375 -18.328125 9.457031 -17.644531 8.1875 -16.28125 C 6.925781 -14.914062 6.285156 -13.160156 6.265625 -11.015625 C 6.285156 -8.898438 6.925781 -7.164062 8.1875 -5.8125 Z M 8.1875 -5.8125 "/></g></g><g style="fill:rgb(100%,100%,100%);fill-opacity:1;"><g transform="translate(209.945024, 182.137692)"><path style="stroke:none;" d="M 24.703125 -30.96875 L 24.703125 0 L 19.90625 0 L 19.90625 -3.796875 C 18.257812 -1.128906 15.660156 0.203125 12.109375 0.203125 C 8.929688 0.203125 6.359375 -0.84375 4.390625 -2.9375 C 2.429688 -5.039062 1.453125 -7.789062 1.453125 -11.1875 C 1.453125 -14.519531 2.425781 -17.222656 4.375 -19.296875 C 6.320312 -21.367188 8.867188 -22.40625 12.015625 -22.40625 C 15.578125 -22.40625 18.207031 -21.054688 19.90625 -18.359375 L 19.90625 -30.96875 Z M 8.1875 -5.8125 C 9.457031 -4.46875 11.09375 -3.796875 13.09375 -3.796875 C 15.101562 -3.796875 16.738281 -4.46875 18 -5.8125 C 19.269531 -7.164062 19.90625 -8.898438 19.90625 -11.015625 C 19.90625 -13.160156 19.269531 -14.914062 18 -16.28125 C 16.738281 -17.644531 15.101562 -18.328125 13.09375 -18.328125 C 11.09375 -18.328125 9.457031 -17.644531 8.1875 -16.28125 C 6.925781 -14.914062 6.285156 -13.160156 6.265625 -11.015625 C 6.285156 -8.898438 6.925781 -7.164062 8.1875 -5.8125 Z M 8.1875 -5.8125 "/></g></g><g style="fill:rgb(100%,100%,100%);fill-opacity:1;"><g transform="translate(238.405242, 182.137692)"><path style="stroke:none;" d="M 8.34375 -22.203125 L 8.34375 -17.78125 C 9.875 -20.84375 12.4375 -22.375 16.03125 -22.375 L 16.03125 -17.78125 C 13.832031 -17.894531 12.050781 -17.378906 10.6875 -16.234375 C 9.320312 -15.097656 8.539062 -13.554688 8.34375 -11.609375 L 8.34375 0 L 3.546875 0 L 3.546875 -22.203125 Z M 8.34375 -22.203125 "/></g></g><g style="fill:rgb(100%,100%,100%);fill-opacity:1;"><g transform="translate(254.847071, 182.137692)"><path style="stroke:none;" d="M 12.6875 -22.375 C 16.5 -22.375 19.257812 -21.222656 20.96875 -18.921875 C 22.675781 -16.628906 23.378906 -13.410156 23.078125 -9.265625 L 6.296875 -9.265625 C 6.691406 -7.535156 7.5 -6.175781 8.71875 -5.1875 C 9.945312 -4.207031 11.4375 -3.71875 13.1875 -3.71875 C 15.6875 -3.71875 17.773438 -4.578125 19.453125 -6.296875 L 22 -3.59375 C 19.71875 -1.082031 16.65625 0.171875 12.8125 0.171875 C 9.382812 0.171875 6.632812 -0.863281 4.5625 -2.9375 C 2.488281 -5.007812 1.453125 -7.710938 1.453125 -11.046875 C 1.453125 -14.390625 2.492188 -17.101562 4.578125 -19.1875 C 6.671875 -21.28125 9.375 -22.34375 12.6875 -22.375 Z M 6.21875 -12.765625 L 18.90625 -12.765625 C 18.820312 -14.546875 18.222656 -15.953125 17.109375 -16.984375 C 15.992188 -18.015625 14.535156 -18.53125 12.734375 -18.53125 C 10.972656 -18.53125 9.515625 -18.015625 8.359375 -16.984375 C 7.210938 -15.953125 6.5 -14.546875 6.21875 -12.765625 Z M 6.21875 -12.765625 "/></g></g><g style="fill:rgb(100%,100%,100%);fill-opacity:1;"><g transform="translate(279.384622, 182.137692)"><path style="stroke:none;" d="M 10.1875 -22.40625 C 13.25 -22.40625 15.835938 -21.65625 17.953125 -20.15625 L 16.1875 -16.609375 C 14.070312 -17.921875 11.945312 -18.578125 9.8125 -18.578125 C 7.632812 -18.578125 6.546875 -17.835938 6.546875 -16.359375 C 6.546875 -15.640625 6.945312 -15.039062 7.75 -14.5625 C 8.5625 -14.09375 9.546875 -13.695312 10.703125 -13.375 C 11.859375 -13.050781 13.015625 -12.675781 14.171875 -12.25 C 15.328125 -11.820312 16.304688 -11.117188 17.109375 -10.140625 C 17.921875 -9.171875 18.328125 -7.929688 18.328125 -6.421875 C 18.328125 -4.285156 17.507812 -2.648438 15.875 -1.515625 C 14.25 -0.390625 12.226562 0.171875 9.8125 0.171875 C 8.132812 0.171875 6.492188 -0.0976562 4.890625 -0.640625 C 3.296875 -1.179688 1.957031 -1.941406 0.875 -2.921875 L 2.59375 -6.34375 C 3.53125 -5.507812 4.6875 -4.84375 6.0625 -4.34375 C 7.445312 -3.84375 8.765625 -3.59375 10.015625 -3.59375 C 11.097656 -3.59375 11.972656 -3.785156 12.640625 -4.171875 C 13.304688 -4.554688 13.640625 -5.15625 13.640625 -5.96875 C 13.640625 -6.800781 13.238281 -7.46875 12.4375 -7.96875 C 11.632812 -8.46875 10.660156 -8.867188 9.515625 -9.171875 C 8.367188 -9.484375 7.222656 -9.847656 6.078125 -10.265625 C 4.941406 -10.679688 3.976562 -11.367188 3.1875 -12.328125 C 2.394531 -13.285156 2 -14.503906 2 -15.984375 C 2 -18.097656 2.785156 -19.695312 4.359375 -20.78125 C 5.929688 -21.863281 7.875 -22.40625 10.1875 -22.40625 Z M 10.1875 -22.40625 "/></g></g><g style="fill:rgb(100%,100%,100%);fill-opacity:1;"><g transform="translate(298.997963, 182.137692)"><path style="stroke:none;" d="M 10.1875 -22.40625 C 13.25 -22.40625 15.835938 -21.65625 17.953125 -20.15625 L 16.1875 -16.609375 C 14.070312 -17.921875 11.945312 -18.578125 9.8125 -18.578125 C 7.632812 -18.578125 6.546875 -17.835938 6.546875 -16.359375 C 6.546875 -15.640625 6.945312 -15.039062 7.75 -14.5625 C 8.5625 -14.09375 9.546875 -13.695312 10.703125 -13.375 C 11.859375 -13.050781 13.015625 -12.675781 14.171875 -12.25 C 15.328125 -11.820312 16.304688 -11.117188 17.109375 -10.140625 C 17.921875 -9.171875 18.328125 -7.929688 18.328125 -6.421875 C 18.328125 -4.285156 17.507812 -2.648438 15.875 -1.515625 C 14.25 -0.390625 12.226562 0.171875 9.8125 0.171875 C 8.132812 0.171875 6.492188 -0.0976562 4.890625 -0.640625 C 3.296875 -1.179688 1.957031 -1.941406 0.875 -2.921875 L 2.59375 -6.34375 C 3.53125 -5.507812 4.6875 -4.84375 6.0625 -4.34375 C 7.445312 -3.84375 8.765625 -3.59375 10.015625 -3.59375 C 11.097656 -3.59375 11.972656 -3.785156 12.640625 -4.171875 C 13.304688 -4.554688 13.640625 -5.15625 13.640625 -5.96875 C 13.640625 -6.800781 13.238281 -7.46875 12.4375 -7.96875 C 11.632812 -8.46875 10.660156 -8.867188 9.515625 -9.171875 C 8.367188 -9.484375 7.222656 -9.847656 6.078125 -10.265625 C 4.941406 -10.679688 3.976562 -11.367188 3.1875 -12.328125 C 2.394531 -13.285156 2 -14.503906 2 -15.984375 C 2 -18.097656 2.785156 -19.695312 4.359375 -20.78125 C 5.929688 -21.863281 7.875 -22.40625 10.1875 -22.40625 Z M 10.1875 -22.40625 "/></g></g><g style="fill:rgb(100%,100%,100%);fill-opacity:1;"><g transform="translate(150.687681, 219.63769)"><path style="stroke:none;" d="M 3.84375 -29.21875 L 16.53125 -29.21875 C 19.5625 -29.21875 21.953125 -28.566406 23.703125 -27.265625 C 25.453125 -25.972656 26.328125 -24.1875 26.328125 -21.90625 C 26.328125 -20.269531 25.867188 -18.875 24.953125 -17.71875 C 24.035156 -16.5625 22.785156 -15.789062 21.203125 -15.40625 C 23.148438 -15.070312 24.679688 -14.25 25.796875 -12.9375 C 26.910156 -11.625 27.46875 -9.984375 27.46875 -8.015625 C 27.46875 -5.503906 26.519531 -3.539062 24.625 -2.125 C 22.726562 -0.707031 20.125 0 16.8125 0 L 3.84375 0 Z M 8.765625 -24.828125 L 8.765625 -17.109375 L 16.28125 -17.109375 C 17.832031 -17.109375 19.050781 -17.457031 19.9375 -18.15625 C 20.832031 -18.851562 21.28125 -19.8125 21.28125 -21.03125 C 21.28125 -22.257812 20.84375 -23.195312 19.96875 -23.84375 C 19.09375 -24.5 17.863281 -24.828125 16.28125 -24.828125 Z M 8.765625 -12.765625 L 8.765625 -4.375 L 16.28125 -4.375 C 18.226562 -4.375 19.734375 -4.742188 20.796875 -5.484375 C 21.867188 -6.222656 22.40625 -7.273438 22.40625 -8.640625 C 22.40625 -9.921875 21.863281 -10.925781 20.78125 -11.65625 C 19.695312 -12.394531 18.195312 -12.765625 16.28125 -12.765625 Z M 8.765625 -12.765625 "/></g></g><g style="fill:rgb(100%,100%,100%);fill-opacity:1;"><g transform="translate(180.149429, 219.63769)"><path style="stroke:none;" d="M 13.0625 -22.375 C 16.488281 -22.375 19.269531 -21.335938 21.40625 -19.265625 C 23.550781 -17.191406 24.625 -14.46875 24.625 -11.09375 C 24.625 -7.757812 23.550781 -5.046875 21.40625 -2.953125 C 19.269531 -0.867188 16.488281 0.171875 13.0625 0.171875 C 9.613281 0.171875 6.816406 -0.867188 4.671875 -2.953125 C 2.523438 -5.046875 1.453125 -7.757812 1.453125 -11.09375 C 1.453125 -14.46875 2.523438 -17.191406 4.671875 -19.265625 C 6.816406 -21.335938 9.613281 -22.375 13.0625 -22.375 Z M 13.0625 -18.234375 C 11.0625 -18.234375 9.425781 -17.566406 8.15625 -16.234375 C 6.894531 -14.898438 6.265625 -13.175781 6.265625 -11.0625 C 6.265625 -8.914062 6.894531 -7.175781 8.15625 -5.84375 C 9.425781 -4.507812 11.0625 -3.84375 13.0625 -3.84375 C 15.0625 -3.84375 16.6875 -4.507812 17.9375 -5.84375 C 19.195312 -7.175781 19.828125 -8.914062 19.828125 -11.0625 C 19.828125 -13.175781 19.191406 -14.898438 17.921875 -16.234375 C 16.660156 -17.566406 15.039062 -18.234375 13.0625 -18.234375 Z M 13.0625 -18.234375 "/></g></g><g style="fill:rgb(100%,100%,100%);fill-opacity:1;"><g transform="translate(206.231004, 219.63769)"><path style="stroke:none;" d="M 13.0625 -22.375 C 16.488281 -22.375 19.269531 -21.335938 21.40625 -19.265625 C 23.550781 -17.191406 24.625 -14.46875 24.625 -11.09375 C 24.625 -7.757812 23.550781 -5.046875 21.40625 -2.953125 C 19.269531 -0.867188 16.488281 0.171875 13.0625 0.171875 C 9.613281 0.171875 6.816406 -0.867188 4.671875 -2.953125 C 2.523438 -5.046875 1.453125 -7.757812 1.453125 -11.09375 C 1.453125 -14.46875 2.523438 -17.191406 4.671875 -19.265625 C 6.816406 -21.335938 9.613281 -22.375 13.0625 -22.375 Z M 13.0625 -18.234375 C 11.0625 -18.234375 9.425781 -17.566406 8.15625 -16.234375 C 6.894531 -14.898438 6.265625 -13.175781 6.265625 -11.0625 C 6.265625 -8.914062 6.894531 -7.175781 8.15625 -5.84375 C 9.425781 -4.507812 11.0625 -3.84375 13.0625 -3.84375 C 15.0625 -3.84375 16.6875 -4.507812 17.9375 -5.84375 C 19.195312 -7.175781 19.828125 -8.914062 19.828125 -11.0625 C 19.828125 -13.175781 19.191406 -14.898438 17.921875 -16.234375 C 16.660156 -17.566406 15.039062 -18.234375 13.0625 -18.234375 Z M 13.0625 -18.234375 "/></g></g><g style="fill:rgb(100%,100%,100%);fill-opacity:1;"><g transform="translate(232.312579, 219.63769)"><path style="stroke:none;" d="M 12.3125 -10.1875 L 8.5625 -6.21875 L 8.5625 0 L 3.75 0 L 3.75 -30.96875 L 8.5625 -30.96875 L 8.5625 -12.265625 L 18.359375 -22.203125 L 23.875 -22.203125 L 15.65625 -13.609375 L 24.5 0 L 18.828125 0 Z M 12.3125 -10.1875 "/></g></g><g style="fill:rgb(100%,100%,100%);fill-opacity:1;"><g transform="translate(150.687681, 243.501985)"><path style="stroke:none;" d="M 8.648438 -2.789062 L 9.875 0 L 11.246094 0 L 6.316406 -11.023438 L 5.007812 -11.023438 L 0.0625 0 L 1.402344 0 L 2.628906 -2.789062 Z M 8.109375 -4 L 3.164062 -4 L 5.621094 -9.589844 Z M 8.109375 -4 "/></g></g><g style="fill:rgb(100%,100%,100%);fill-opacity:1;"><g transform="translate(161.996137, 243.501985)"><path style="stroke:none;" d="M 5.9375 -8.347656 C 4.425781 -8.332031 3.308594 -7.734375 2.726562 -6.472656 L 2.726562 -8.300781 L 1.496094 -8.300781 L 1.496094 0 L 2.726562 0 L 2.726562 -4.457031 C 2.867188 -6.03125 3.875 -7.101562 5.511719 -7.117188 C 6.976562 -7.117188 7.859375 -6.253906 7.859375 -4.789062 L 7.859375 0 L 9.085938 0 L 9.085938 -5.117188 C 9.085938 -7.117188 7.921875 -8.347656 5.9375 -8.347656 Z M 5.9375 -8.347656 "/></g></g><g style="fill:rgb(100%,100%,100%);fill-opacity:1;"><g transform="translate(172.328091, 243.501985)"><path style="stroke:none;" d=""/></g></g><g style="fill:rgb(100%,100%,100%);fill-opacity:1;"><g transform="translate(176.643578, 243.501985)"><path style="stroke:none;" d="M 8.648438 -2.789062 L 9.875 0 L 11.246094 0 L 6.316406 -11.023438 L 5.007812 -11.023438 L 0.0625 0 L 1.402344 0 L 2.628906 -2.789062 Z M 8.109375 -4 L 3.164062 -4 L 5.621094 -9.589844 Z M 8.109375 -4 "/></g></g><g style="fill:rgb(100%,100%,100%);fill-opacity:1;"><g transform="translate(187.952033, 243.501985)"><path style="stroke:none;" d="M 4.945312 -11.070312 C 2.660156 -11.070312 1.132812 -9.953125 1.132812 -8.222656 C 1.132812 -4.269531 7.339844 -5.8125 7.324219 -2.914062 C 7.324219 -1.859375 6.332031 -1.210938 4.742188 -1.210938 C 3.496094 -1.210938 2.09375 -1.78125 1.070312 -2.773438 L 0.503906 -1.636719 C 1.542969 -0.644531 3.117188 0.046875 4.726562 0.046875 C 7.085938 0.046875 8.710938 -1.132812 8.710938 -2.976562 C 8.726562 -6.976562 2.519531 -5.496094 2.519531 -8.332031 C 2.519531 -9.261719 3.449219 -9.796875 4.867188 -9.796875 C 5.75 -9.796875 6.914062 -9.527344 7.90625 -8.867188 L 8.441406 -10.046875 C 7.527344 -10.664062 6.222656 -11.070312 4.945312 -11.070312 Z M 4.945312 -11.070312 "/></g></g><g style="fill:rgb(100%,100%,100%);fill-opacity:1;"><g transform="translate(197.575244, 243.501985)"><path style="stroke:none;" d="M 1.667969 -11.023438 L 1.667969 0 L 2.929688 0 L 2.929688 -3.480469 L 5.8125 -3.480469 C 8.535156 -3.480469 10.113281 -4.882812 10.113281 -7.324219 C 10.113281 -9.671875 8.535156 -11.023438 5.8125 -11.023438 Z M 2.929688 -9.8125 L 5.765625 -9.8125 C 7.75 -9.8125 8.898438 -8.960938 8.898438 -7.292969 C 8.898438 -5.574219 7.75 -4.695312 5.765625 -4.695312 L 2.929688 -4.695312 Z M 2.929688 -9.8125 "/></g></g><g style="fill:rgb(100%,100%,100%);fill-opacity:1;"><g transform="translate(208.111944, 243.501985)"><path style="stroke:none;" d="M 1.574219 -1.511719 C 1.132812 -1.511719 0.804688 -1.164062 0.804688 -0.691406 C 0.804688 -0.21875 1.132812 0.125 1.574219 0.125 C 2 0.125 2.332031 -0.21875 2.332031 -0.691406 C 2.332031 -1.164062 2 -1.511719 1.574219 -1.511719 Z M 1.574219 -1.511719 "/></g></g><g style="fill:rgb(100%,100%,100%);fill-opacity:1;"><g transform="translate(211.246183, 243.501985)"><path style="stroke:none;" d="M 10.835938 0 L 10.835938 -11.023438 L 9.589844 -11.023438 L 9.589844 -2.15625 L 2.976562 -11.023438 L 1.667969 -11.023438 L 1.667969 0 L 2.929688 0 L 2.929688 -8.851562 L 9.542969 0 Z M 10.835938 0 "/></g></g><g style="fill:rgb(100%,100%,100%);fill-opacity:1;"><g transform="translate(223.76738, 243.501985)"><path style="stroke:none;" d="M 9.152344 -9.8125 L 9.152344 -11.023438 L 1.667969 -11.023438 L 1.667969 0 L 9.355469 0 L 9.355469 -1.195312 L 2.929688 -1.195312 L 2.929688 -4.976562 L 8.488281 -4.976562 L 8.488281 -6.191406 L 2.929688 -6.191406 L 2.929688 -9.8125 Z M 9.152344 -9.8125 "/></g></g><g style="fill:rgb(100%,100%,100%);fill-opacity:1;"><g transform="translate(234.020588, 243.501985)"><path style="stroke:none;" d="M 8.632812 -9.8125 L 8.632812 -11.023438 L 0.171875 -11.023438 L 0.171875 -9.8125 L 3.765625 -9.8125 L 3.765625 0 L 5.023438 0 L 5.023438 -9.8125 Z M 8.632812 -9.8125 "/></g></g><g style="fill:rgb(100%,100%,100%);fill-opacity:1;"><g transform="translate(242.809055, 243.501985)"><path style="stroke:none;" d=""/></g></g><g style="fill:rgb(100%,100%,100%);fill-opacity:1;"><g transform="translate(247.124541, 243.501985)"><path style="stroke:none;" d="M 12.820312 0 L 12.820312 -11.023438 L 11.277344 -11.023438 L 7.261719 -3.085938 L 3.230469 -11.023438 L 1.667969 -11.023438 L 1.667969 0 L 2.867188 0 L 2.867188 -9.085938 L 6.867188 -1.164062 L 7.621094 -1.164062 L 11.640625 -9.085938 L 11.65625 0 Z M 12.820312 0 "/></g></g><g style="fill:rgb(100%,100%,100%);fill-opacity:1;"><g transform="translate(261.630224, 243.501985)"><path style="stroke:none;" d="M 5.875 0 L 10.378906 -11.023438 L 9.054688 -11.023438 L 5.246094 -1.464844 L 1.449219 -11.023438 L 0.09375 -11.023438 L 4.566406 0 Z M 5.875 0 "/></g></g><g style="fill:rgb(100%,100%,100%);fill-opacity:1;"><g transform="translate(272.103925, 243.501985)"><path style="stroke:none;" d="M 6.378906 -11.054688 C 3.179688 -11.054688 0.628906 -8.617188 0.628906 -5.527344 C 0.628906 -2.410156 3.148438 0.0625 6.332031 0.0625 C 7.859375 0.0625 9.339844 -0.613281 10.425781 -1.636719 L 9.65625 -2.503906 C 8.789062 -1.683594 7.605469 -1.179688 6.394531 -1.179688 C 3.90625 -1.179688 1.90625 -3.117188 1.90625 -5.527344 C 1.90625 -7.953125 3.90625 -9.875 6.394531 -9.875 C 7.605469 -9.875 8.804688 -9.355469 9.65625 -8.488281 L 10.410156 -9.449219 C 9.355469 -10.441406 7.890625 -11.054688 6.378906 -11.054688 Z M 6.378906 -11.054688 "/></g></g><g style="fill:rgb(100%,100%,100%);fill-opacity:1;"><g transform="translate(283.128876, 243.501985)"><path style="stroke:none;" d=""/></g></g><g style="fill:rgb(100%,100%,100%);fill-opacity:1;"><g transform="translate(287.444363, 243.501985)"><path style="stroke:none;" d="M 1.667969 -11.023438 L 1.667969 0 L 2.929688 0 L 2.929688 -3.480469 L 5.8125 -3.480469 C 8.535156 -3.480469 10.113281 -4.882812 10.113281 -7.324219 C 10.113281 -9.671875 8.535156 -11.023438 5.8125 -11.023438 Z M 2.929688 -9.8125 L 5.765625 -9.8125 C 7.75 -9.8125 8.898438 -8.960938 8.898438 -7.292969 C 8.898438 -5.574219 7.75 -4.695312 5.765625 -4.695312 L 2.929688 -4.695312 Z M 2.929688 -9.8125 "/></g></g><g style="fill:rgb(100%,100%,100%);fill-opacity:1;"><g transform="translate(297.981063, 243.501985)"><path style="stroke:none;" d="M 2.726562 -8.300781 L 1.496094 -8.300781 L 1.496094 0 L 2.726562 0 L 2.726562 -4.410156 C 2.867188 -6.046875 3.953125 -7.132812 5.703125 -7.101562 L 5.703125 -8.347656 C 4.300781 -8.332031 3.277344 -7.671875 2.726562 -6.457031 Z M 2.726562 -8.300781 "/></g></g><g style="fill:rgb(100%,100%,100%);fill-opacity:1;"><g transform="translate(303.840037, 243.501985)"><path style="stroke:none;" d="M 4.867188 -8.332031 C 2.410156 -8.332031 0.660156 -6.628906 0.660156 -4.15625 C 0.660156 -1.667969 2.410156 0.046875 4.867188 0.046875 C 7.324219 0.046875 9.070312 -1.667969 9.070312 -4.15625 C 9.070312 -6.628906 7.324219 -8.332031 4.867188 -8.332031 Z M 4.867188 -7.214844 C 6.597656 -7.214844 7.84375 -5.953125 7.84375 -4.140625 C 7.84375 -2.316406 6.597656 -1.054688 4.867188 -1.054688 C 3.132812 -1.054688 1.890625 -2.316406 1.890625 -4.140625 C 1.890625 -5.953125 3.132812 -7.214844 4.867188 -7.214844 Z M 4.867188 -7.214844 "/></g></g><g style="fill:rgb(100%,100%,100%);fill-opacity:1;"><g transform="translate(313.5735, 243.501985)"><path style="stroke:none;" d="M 2.0625 -11.542969 C 1.589844 -11.542969 1.226562 -11.167969 1.226562 -10.679688 C 1.226562 -10.191406 1.589844 -9.8125 2.0625 -9.8125 C 2.550781 -9.8125 2.898438 -10.191406 2.898438 -10.679688 C 2.898438 -11.167969 2.550781 -11.542969 2.0625 -11.542969 Z M 2.675781 -8.300781 L 1.449219 -8.300781 L 1.449219 0.472656 C 1.449219 1.480469 0.976562 1.953125 0.253906 1.953125 C -0.15625 1.953125 -0.582031 1.796875 -0.945312 1.527344 L -1.386719 2.535156 C -0.914062 2.898438 -0.300781 3.101562 0.300781 3.101562 C 1.589844 3.117188 2.675781 2.222656 2.675781 0.316406 Z M 2.675781 -8.300781 "/></g></g><g style="fill:rgb(100%,100%,100%);fill-opacity:1;"><g transform="translate(317.778734, 243.501985)"><path style="stroke:none;" d="M 4.773438 -8.332031 C 2.363281 -8.332031 0.660156 -6.613281 0.660156 -4.140625 C 0.660156 -1.667969 2.347656 0.046875 4.789062 0.046875 C 6.175781 0.046875 7.339844 -0.457031 8.128906 -1.339844 L 7.449219 -2.0625 C 6.804688 -1.386719 5.90625 -1.023438 4.882812 -1.023438 C 3.277344 -1.023438 2.09375 -2.046875 1.875 -3.667969 L 8.648438 -3.667969 C 8.773438 -6.488281 7.449219 -8.347656 4.773438 -8.332031 Z M 1.875 -4.679688 C 2.0625 -6.253906 3.195312 -7.277344 4.773438 -7.277344 C 6.394531 -7.277344 7.464844 -6.269531 7.542969 -4.679688 Z M 1.875 -4.679688 "/></g></g><g style="fill:rgb(100%,100%,100%);fill-opacity:1;"><g transform="translate(327.039693, 243.501985)"><path style="stroke:none;" d="M 4.773438 -8.332031 C 2.378906 -8.332031 0.660156 -6.613281 0.660156 -4.140625 C 0.660156 -1.667969 2.363281 0.046875 4.773438 0.046875 C 6.207031 0.046875 7.355469 -0.488281 8.09375 -1.386719 L 7.386719 -2.140625 C 6.804688 -1.449219 5.90625 -1.070312 4.820312 -1.070312 C 3.101562 -1.070312 1.875 -2.332031 1.875 -4.140625 C 1.875 -5.953125 3.101562 -7.199219 4.820312 -7.199219 C 5.828125 -7.199219 6.664062 -6.835938 7.292969 -6.238281 L 7.96875 -7.101562 C 7.214844 -7.890625 6.109375 -8.347656 4.773438 -8.332031 Z M 4.773438 -8.332031 "/></g></g><g style="fill:rgb(100%,100%,100%);fill-opacity:1;"><g transform="translate(335.875401, 243.501985)"><path style="stroke:none;" d="M 5.433594 -1.558594 C 4.976562 -1.277344 4.535156 -1.132812 4.109375 -1.132812 C 3.402344 -1.132812 3.007812 -1.511719 3.007812 -2.519531 L 3.007812 -7.039062 L 5.636719 -7.039062 L 5.636719 -8.046875 L 3.007812 -8.03125 L 3.007812 -10.222656 L 1.796875 -10.222656 L 1.796875 -8.03125 L 0.597656 -8.03125 L 0.597656 -7.039062 L 1.796875 -7.039062 L 1.796875 -2.300781 C 1.796875 -0.660156 2.691406 0.0625 3.90625 0.0625 C 4.566406 0.046875 5.199219 -0.171875 5.78125 -0.566406 Z M 5.433594 -1.558594 "/></g></g><g clip-rule="nonzero" clip-path="url(#clip1)"><g clip-rule="nonzero" clip-path="url(#clip2)"><g clip-rule="nonzero" clip-path="url(#clip3)"><path style=" stroke:none;fill-rule:nonzero;fill:rgb(13.729858%,70.979309%,70.979309%);fill-opacity:1;" d="M 136.136719 236.171875 L 136.894531 155.53125 L 136.878906 155.519531 C 136.914062 153.96875 136.164062 152.449219 134.746094 151.59375 C 133.476562 150.828125 131.980469 150.785156 130.707031 151.324219 L 130.695312 151.320312 L 130.648438 151.347656 C 130.410156 151.453125 130.183594 151.582031 129.960938 151.730469 L 60.375 190.542969 L 60.375 190.546875 C 59.597656 190.914062 58.914062 191.503906 58.4375 192.296875 C 57.15625 194.425781 57.828125 197.183594 59.941406 198.457031 L 129.34375 240.285156 C 131.457031 241.558594 134.210938 240.863281 135.492188 238.738281 C 135.976562 237.933594 136.179688 237.039062 136.136719 236.171875 Z M 136.136719 236.171875 "/></g></g></g></g></svg>